<?xml version="1.0" encoding="UTF-8" standalone="no"?><!-- Generator: Gravit.io --><svg xmlns="http://www.w3.org/2000/svg" xmlns:xlink="http://www.w3.org/1999/xlink" style="isolation:isolate" viewBox="0 0 280 54.8" width="280pt" height="54.8pt"><defs><clipPath id="_clipPath_KMzgBhtY2sZrU5q5GpRyEmcaKDmfqTKo"><rect width="280" height="54.8"/></clipPath></defs><g clip-path="url(#_clipPath_KMzgBhtY2sZrU5q5GpRyEmcaKDmfqTKo)"><path d=" M 254.889 54.8 L 233.064 54.8 L 233.064 54.8 Q 232.282 54.8 231.656 54.213 L 231.656 54.213 L 231.656 54.213 Q 231.03 53.627 231.03 52.766 L 231.03 52.766 L 231.03 2.075 L 231.03 2.075 Q 231.03 1.215 231.656 0.628 L 231.656 0.628 L 231.656 0.628 Q 232.282 0.041 233.064 0.041 L 233.064 0.041 L 254.498 0.041 L 254.498 0.041 Q 262.086 0.041 267.64 2.505 L 267.64 2.505 L 267.64 2.505 Q 273.194 4.969 276.402 9.741 L 276.402 9.741 L 276.402 9.741 Q 279.609 14.513 279.844 21.475 L 279.844 21.475 L 279.844 21.475 Q 280 24.839 280 27.421 L 280 27.421 L 280 27.421 Q 280 30.002 279.844 33.288 L 279.844 33.288 L 279.844 33.288 Q 279.531 40.641 276.519 45.413 L 276.519 45.413 L 276.519 45.413 Q 273.507 50.185 268.031 52.492 L 268.031 52.492 L 268.031 52.492 Q 262.555 54.8 254.889 54.8 L 254.889 54.8 Z  M 247.849 13.34 L 247.849 41.501 L 254.498 41.501 L 254.498 41.501 Q 257.08 41.501 258.879 40.641 L 258.879 40.641 L 258.879 40.641 Q 260.678 39.78 261.695 37.942 L 261.695 37.942 L 261.695 37.942 Q 262.712 36.104 262.79 33.209 L 262.79 33.209 L 262.79 33.209 Q 262.868 30.941 262.907 29.142 L 262.907 29.142 L 262.907 29.142 Q 262.947 27.342 262.907 25.543 L 262.907 25.543 L 262.907 25.543 Q 262.868 23.744 262.79 21.554 L 262.79 21.554 L 262.79 21.554 Q 262.634 17.251 260.326 15.295 L 260.326 15.295 L 260.326 15.295 Q 258.018 13.34 254.107 13.34 L 254.107 13.34 L 247.849 13.34 Z " fill-rule="evenodd" fill="rgb(76,138,0)"/><path d=" M 156.778 41.501 L 156.025 41.501 L 156.025 41.501 Q 155.45 41.501 155.14 41.228 L 155.14 41.228 L 155.14 41.228 Q 154.83 40.954 154.609 40.362 L 154.609 40.362 L 148.367 19.212 L 148.367 19.212 Q 148.279 18.938 148.279 18.71 L 148.279 18.71 L 148.279 18.71 Q 148.279 18.346 148.544 18.072 L 148.544 18.072 L 148.544 18.072 Q 148.81 17.799 149.164 17.799 L 149.164 17.799 L 150.005 17.799 L 150.005 17.799 Q 150.448 17.799 150.691 18.049 L 150.691 18.049 L 150.691 18.049 Q 150.935 18.3 150.979 18.482 L 150.979 18.482 L 156.424 37.445 L 162.222 18.71 L 162.222 18.71 Q 162.311 18.437 162.576 18.118 L 162.576 18.118 L 162.576 18.118 Q 162.842 17.799 163.417 17.799 L 163.417 17.799 L 164.303 17.799 L 164.303 17.799 Q 164.878 17.799 165.166 18.118 L 165.166 18.118 L 165.166 18.118 Q 165.454 18.437 165.498 18.71 L 165.498 18.71 L 171.296 37.445 L 176.741 18.482 L 176.741 18.482 Q 176.785 18.3 177.029 18.049 L 177.029 18.049 L 177.029 18.049 Q 177.272 17.799 177.715 17.799 L 177.715 17.799 L 178.556 17.799 L 178.556 17.799 Q 178.91 17.799 179.176 18.072 L 179.176 18.072 L 179.176 18.072 Q 179.441 18.346 179.441 18.71 L 179.441 18.71 L 179.441 18.71 Q 179.441 18.938 179.353 19.212 L 179.353 19.212 L 173.111 40.362 L 173.111 40.362 Q 172.934 40.954 172.624 41.228 L 172.624 41.228 L 172.624 41.228 Q 172.315 41.501 171.695 41.501 L 171.695 41.501 L 170.942 41.501 L 170.942 41.501 Q 170.367 41.501 169.991 41.228 L 169.991 41.228 L 169.991 41.228 Q 169.614 40.954 169.437 40.362 L 169.437 40.362 L 163.86 22.403 L 158.283 40.362 L 158.283 40.362 Q 158.106 40.954 157.751 41.228 L 157.751 41.228 L 157.751 41.228 Q 157.397 41.501 156.778 41.501 L 156.778 41.501 Z " fill="rgb(255,255,255)"/><path d=" M 192.605 41.501 L 192.605 41.501 L 192.605 41.501 Q 189.418 41.501 187.271 40.185 L 187.271 40.185 L 187.271 40.185 Q 185.124 38.868 183.995 36.585 L 183.995 36.585 L 183.995 36.585 Q 182.867 34.303 182.778 31.494 L 182.778 31.494 L 182.778 31.494 Q 182.734 30.835 182.734 29.65 L 182.734 29.65 L 182.734 29.65 Q 182.734 28.465 182.778 27.807 L 182.778 27.807 L 182.778 27.807 Q 182.867 24.953 183.995 22.693 L 183.995 22.693 L 183.995 22.693 Q 185.124 20.432 187.271 19.116 L 187.271 19.116 L 187.271 19.116 Q 189.418 17.799 192.605 17.799 L 192.605 17.799 L 192.605 17.799 Q 195.792 17.799 197.939 19.116 L 197.939 19.116 L 197.939 19.116 Q 200.086 20.432 201.214 22.693 L 201.214 22.693 L 201.214 22.693 Q 202.343 24.953 202.432 27.807 L 202.432 27.807 L 202.432 27.807 Q 202.476 28.465 202.476 29.65 L 202.476 29.65 L 202.476 29.65 Q 202.476 30.835 202.432 31.494 L 202.432 31.494 L 202.432 31.494 Q 202.343 34.303 201.214 36.585 L 201.214 36.585 L 201.214 36.585 Q 200.086 38.868 197.939 40.185 L 197.939 40.185 L 197.939 40.185 Q 195.792 41.501 192.605 41.501 Z " fill="rgb(76,138,0)"/><path d=" M 192.605 39.034 L 192.605 39.034 L 192.605 39.034 Q 195.703 39.034 197.651 37.042 L 197.651 37.042 L 197.651 37.042 Q 199.599 35.05 199.731 31.288 L 199.731 31.288 L 199.731 31.288 Q 199.776 30.624 199.776 29.65 L 199.776 29.65 L 199.776 29.65 Q 199.776 28.676 199.731 28.012 L 199.731 28.012 L 199.731 28.012 Q 199.599 24.206 197.651 22.236 L 197.651 22.236 L 197.651 22.236 Q 195.703 20.266 192.605 20.266 L 192.605 20.266 L 192.605 20.266 Q 189.506 20.266 187.559 22.236 L 187.559 22.236 L 187.559 22.236 Q 185.611 24.206 185.478 28.012 L 185.478 28.012 L 185.478 28.012 Q 185.434 28.676 185.434 29.65 L 185.434 29.65 L 185.434 29.65 Q 185.434 30.624 185.478 31.288 L 185.478 31.288 L 185.478 31.288 Q 185.611 35.05 187.559 37.042 L 187.559 37.042 L 187.559 37.042 Q 189.506 39.034 192.605 39.034 Z " fill="rgb(76,138,0)"/><path d=" M 223.514 41.491 L 222.762 41.491 L 222.762 41.491 Q 222.319 41.491 222.054 41.253 L 222.054 41.253 L 222.054 41.253 Q 221.788 41.015 221.788 40.619 L 221.788 40.619 L 221.788 14.222 L 221.788 14.222 Q 221.788 13.826 222.054 13.588 L 222.054 13.588 L 222.054 13.588 Q 222.319 13.35 222.762 13.35 L 222.762 13.35 L 223.514 13.35 L 223.514 13.35 Q 223.957 13.35 224.223 13.588 L 224.223 13.588 L 224.223 13.588 Q 224.488 13.826 224.488 14.222 L 224.488 14.222 L 224.488 40.619 L 224.488 40.619 Q 224.488 41.015 224.223 41.253 L 224.223 41.253 L 224.223 41.253 Q 223.957 41.491 223.514 41.491 L 223.514 41.491 Z " fill="rgb(255,255,255)"/><path d=" M 59.641 41.48 L 58.848 41.48 L 58.848 41.48 Q 58.352 41.48 58.055 41.207 L 58.055 41.207 L 58.055 41.207 Q 57.758 40.933 57.758 40.478 L 57.758 40.478 L 57.758 18.826 L 57.758 18.826 Q 57.758 18.37 58.055 18.074 L 58.055 18.074 L 58.055 18.074 Q 58.352 17.778 58.848 17.778 L 58.848 17.778 L 59.641 17.778 L 59.641 17.778 Q 60.136 17.778 60.458 18.074 L 60.458 18.074 L 60.458 18.074 Q 60.78 18.37 60.78 18.826 L 60.78 18.826 L 60.78 20.923 L 60.78 20.923 Q 61.672 19.327 63.357 18.552 L 63.357 18.552 L 63.357 18.552 Q 65.042 17.778 67.52 17.778 L 67.52 17.778 L 69.353 17.778 L 69.353 17.778 Q 69.849 17.778 70.146 18.051 L 70.146 18.051 L 70.146 18.051 Q 70.443 18.325 70.443 18.78 L 70.443 18.78 L 70.443 19.419 L 70.443 19.419 Q 70.443 19.874 70.146 20.148 L 70.146 20.148 L 70.146 20.148 Q 69.849 20.421 69.353 20.421 L 69.353 20.421 L 67.222 20.421 L 67.222 20.421 Q 64.249 20.421 62.515 22.017 L 62.515 22.017 L 62.515 22.017 Q 60.78 23.612 60.78 26.347 L 60.78 26.347 L 60.78 40.478 L 60.78 40.478 Q 60.78 40.933 60.458 41.207 L 60.458 41.207 L 60.458 41.207 Q 60.136 41.48 59.641 41.48 L 59.641 41.48 Z " fill="rgb(255,255,255)"/><path d=" M 83.45 41.47 L 83.45 41.47 L 83.45 41.47 Q 79.152 41.47 76.627 38.685 L 76.627 38.685 L 76.627 38.685 Q 74.101 35.9 73.747 31.383 L 73.747 31.383 L 73.747 31.383 Q 73.703 30.725 73.703 29.629 L 73.703 29.629 L 73.703 29.629 Q 73.703 28.533 73.747 27.875 L 73.747 27.875 L 73.747 27.875 Q 73.969 24.893 75.165 22.612 L 75.165 22.612 L 75.165 22.612 Q 76.361 20.332 78.466 19.06 L 78.466 19.06 L 78.466 19.06 Q 80.57 17.788 83.45 17.788 L 83.45 17.788 L 83.45 17.788 Q 86.551 17.788 88.722 19.148 L 88.722 19.148 L 88.722 19.148 Q 90.893 20.507 92.067 23.051 L 92.067 23.051 L 92.067 23.051 Q 93.242 25.594 93.242 29.103 L 93.242 29.103 L 93.242 29.76 L 93.242 29.76 Q 93.242 30.199 92.954 30.462 L 92.954 30.462 L 92.954 30.462 Q 92.666 30.725 92.223 30.725 L 92.223 30.725 L 76.45 30.725 L 76.45 30.725 Q 76.45 30.725 76.45 30.901 L 76.45 30.901 L 76.45 30.901 Q 76.45 31.076 76.45 31.164 L 76.45 31.164 L 76.45 31.164 Q 76.538 33.137 77.38 34.913 L 77.38 34.913 L 77.38 34.913 Q 78.222 36.69 79.773 37.808 L 79.773 37.808 L 79.773 37.808 Q 81.323 38.926 83.45 38.926 L 83.45 38.926 L 83.45 38.926 Q 85.355 38.926 86.618 38.356 L 86.618 38.356 L 86.618 38.356 Q 87.881 37.786 88.634 37.106 L 88.634 37.106 L 88.634 37.106 Q 89.387 36.426 89.608 36.076 L 89.608 36.076 L 89.608 36.076 Q 90.007 35.505 90.229 35.396 L 90.229 35.396 L 90.229 35.396 Q 90.45 35.286 90.938 35.286 L 90.938 35.286 L 91.647 35.286 L 91.647 35.286 Q 92.045 35.286 92.333 35.527 L 92.333 35.527 L 92.333 35.527 Q 92.621 35.769 92.577 36.163 L 92.577 36.163 L 92.577 36.163 Q 92.533 36.777 91.89 37.676 L 91.89 37.676 L 91.89 37.676 Q 91.248 38.575 90.074 39.452 L 90.074 39.452 L 90.074 39.452 Q 88.9 40.33 87.216 40.9 L 87.216 40.9 L 87.216 40.9 Q 85.532 41.47 83.45 41.47 Z  M 76.45 28.094 L 76.45 28.269 L 90.539 28.269 L 90.539 28.094 L 90.539 28.094 Q 90.539 25.901 89.697 24.147 L 89.697 24.147 L 89.697 24.147 Q 88.855 22.393 87.26 21.362 L 87.26 21.362 L 87.26 21.362 Q 85.665 20.332 83.45 20.332 L 83.45 20.332 L 83.45 20.332 Q 81.235 20.332 79.662 21.362 L 79.662 21.362 L 79.662 21.362 Q 78.089 22.393 77.269 24.147 L 77.269 24.147 L 77.269 24.147 Q 76.45 25.901 76.45 28.094 L 76.45 28.094 Z " fill-rule="evenodd" fill="rgb(255,255,255)"/><path d=" M 106.265 41.48 L 106.265 41.48 L 106.265 41.48 Q 101.967 41.48 99.442 38.696 L 99.442 38.696 L 99.442 38.696 Q 96.917 35.911 96.562 31.394 L 96.562 31.394 L 96.562 31.394 Q 96.518 30.736 96.518 29.64 L 96.518 29.64 L 96.518 29.64 Q 96.518 28.543 96.562 27.885 L 96.562 27.885 L 96.562 27.885 Q 96.784 24.903 97.98 22.623 L 97.98 22.623 L 97.98 22.623 Q 99.176 20.342 101.281 19.07 L 101.281 19.07 L 101.281 19.07 Q 103.385 17.799 106.265 17.799 L 106.265 17.799 L 106.265 17.799 Q 109.366 17.799 111.537 19.158 L 111.537 19.158 L 111.537 19.158 Q 113.708 20.518 114.883 23.061 L 114.883 23.061 L 114.883 23.061 Q 116.057 25.605 116.057 29.113 L 116.057 29.113 L 116.057 29.771 L 116.057 29.771 Q 116.057 30.21 115.769 30.473 L 115.769 30.473 L 115.769 30.473 Q 115.481 30.736 115.038 30.736 L 115.038 30.736 L 99.265 30.736 L 99.265 30.736 Q 99.265 30.736 99.265 30.911 L 99.265 30.911 L 99.265 30.911 Q 99.265 31.087 99.265 31.174 L 99.265 31.174 L 99.265 31.174 Q 99.353 33.148 100.195 34.924 L 100.195 34.924 L 100.195 34.924 Q 101.037 36.7 102.588 37.818 L 102.588 37.818 L 102.588 37.818 Q 104.138 38.937 106.265 38.937 L 106.265 38.937 L 106.265 38.937 Q 108.17 38.937 109.433 38.367 L 109.433 38.367 L 109.433 38.367 Q 110.696 37.797 111.449 37.117 L 111.449 37.117 L 111.449 37.117 Q 112.202 36.437 112.424 36.086 L 112.424 36.086 L 112.424 36.086 Q 112.822 35.516 113.044 35.406 L 113.044 35.406 L 113.044 35.406 Q 113.265 35.297 113.753 35.297 L 113.753 35.297 L 114.462 35.297 L 114.462 35.297 Q 114.86 35.297 115.148 35.538 L 115.148 35.538 L 115.148 35.538 Q 115.436 35.779 115.392 36.174 L 115.392 36.174 L 115.392 36.174 Q 115.348 36.788 114.705 37.687 L 114.705 37.687 L 114.705 37.687 Q 114.063 38.586 112.889 39.463 L 112.889 39.463 L 112.889 39.463 Q 111.715 40.34 110.031 40.91 L 110.031 40.91 L 110.031 40.91 Q 108.347 41.48 106.265 41.48 Z  M 99.265 28.105 L 99.265 28.28 L 113.354 28.28 L 113.354 28.105 L 113.354 28.105 Q 113.354 25.912 112.512 24.158 L 112.512 24.158 L 112.512 24.158 Q 111.67 22.403 110.075 21.373 L 110.075 21.373 L 110.075 21.373 Q 108.48 20.342 106.265 20.342 L 106.265 20.342 L 106.265 20.342 Q 104.05 20.342 102.477 21.373 L 102.477 21.373 L 102.477 21.373 Q 100.904 22.403 100.084 24.158 L 100.084 24.158 L 100.084 24.158 Q 99.265 25.912 99.265 28.105 L 99.265 28.105 Z " fill-rule="evenodd" fill="rgb(255,255,255)"/><path d=" M 121.044 41.552 L 120.291 41.552 L 120.291 41.552 Q 119.848 41.552 119.582 41.282 L 119.582 41.282 L 119.582 41.282 Q 119.316 41.012 119.316 40.562 L 119.316 40.562 L 119.316 19.146 L 119.316 19.146 Q 119.316 18.696 119.582 18.426 L 119.582 18.426 L 119.582 18.426 Q 119.848 18.156 120.291 18.156 L 120.291 18.156 L 121.044 18.156 L 121.044 18.156 Q 121.487 18.156 121.753 18.426 L 121.753 18.426 L 121.753 18.426 Q 122.019 18.696 122.019 19.146 L 122.019 19.146 L 122.019 21.26 L 122.019 21.26 Q 123.215 19.686 124.921 18.696 L 124.921 18.696 L 124.921 18.696 Q 126.627 17.706 129.462 17.706 L 129.462 17.706 L 129.462 17.706 Q 132.475 17.706 134.491 19.033 L 134.491 19.033 L 134.491 19.033 Q 136.507 20.36 137.504 22.633 L 137.504 22.633 L 137.504 22.633 Q 138.5 24.905 138.5 27.784 L 138.5 27.784 L 138.5 40.562 L 138.5 40.562 Q 138.5 41.012 138.235 41.282 L 138.235 41.282 L 138.235 41.282 Q 137.969 41.552 137.526 41.552 L 137.526 41.552 L 136.773 41.552 L 136.773 41.552 Q 136.329 41.552 136.064 41.282 L 136.064 41.282 L 136.064 41.282 Q 135.798 41.012 135.798 40.562 L 135.798 40.562 L 135.798 28.009 L 135.798 28.009 Q 135.798 24.41 134.07 22.363 L 134.07 22.363 L 134.07 22.363 Q 132.342 20.315 129.019 20.315 L 129.019 20.315 L 129.019 20.315 Q 125.873 20.315 123.946 22.363 L 123.946 22.363 L 123.946 22.363 Q 122.019 24.41 122.019 28.009 L 122.019 28.009 L 122.019 40.562 L 122.019 40.562 Q 122.019 41.012 121.753 41.282 L 121.753 41.282 L 121.753 41.282 Q 121.487 41.552 121.044 41.552 L 121.044 41.552 Z " fill="rgb(255,255,255)"/><path d=" M 24.736 54.8 L 24.736 54.8 L 24.736 54.8 Q 17.201 54.8 11.797 52.479 L 11.797 52.479 L 11.797 52.479 Q 6.393 50.157 3.349 45.514 L 3.349 45.514 L 3.349 45.514 Q 0.304 40.872 0.076 34.022 L 0.076 34.022 L 0.076 34.022 Q 0 30.825 0 27.134 L 0 27.134 L 0 27.134 Q 0 23.442 0.076 20.169 L 0.076 20.169 L 0.076 20.169 Q 0.304 13.548 3.387 9.057 L 3.387 9.057 L 3.387 9.057 Q 6.469 4.567 11.949 2.283 L 11.949 2.283 L 11.949 2.283 Q 17.429 0 24.736 0 L 24.736 0 L 24.736 0 Q 30.597 0 35.163 1.37 L 35.163 1.37 L 35.163 1.37 Q 39.73 2.74 42.965 5.099 L 42.965 5.099 L 42.965 5.099 Q 46.199 7.459 47.912 10.389 L 47.912 10.389 L 47.912 10.389 Q 49.624 13.319 49.701 16.44 L 49.701 16.44 L 49.701 16.44 Q 49.701 17.125 49.206 17.582 L 49.206 17.582 L 49.206 17.582 Q 48.711 18.038 48.026 18.038 L 48.026 18.038 L 34.022 18.038 L 34.022 18.038 Q 33.261 18.038 32.804 17.81 L 32.804 17.81 L 32.804 17.81 Q 32.347 17.582 31.967 17.125 L 31.967 17.125 L 31.967 17.125 Q 31.586 16.364 30.787 15.374 L 30.787 15.374 L 30.787 15.374 Q 29.988 14.385 28.542 13.662 L 28.542 13.662 L 28.542 13.662 Q 27.096 12.939 24.736 12.939 L 24.736 12.939 L 24.736 12.939 Q 21.159 12.939 19.18 14.766 L 19.18 14.766 L 19.18 14.766 Q 17.201 16.592 17.049 20.55 L 17.049 20.55 L 17.049 20.55 Q 16.821 26.943 17.049 33.641 L 17.049 33.641 L 17.049 33.641 Q 17.201 37.979 19.294 39.92 L 19.294 39.92 L 19.294 39.92 Q 21.387 41.861 24.964 41.861 L 24.964 41.861 L 24.964 41.861 Q 27.324 41.861 29.189 41.1 L 29.189 41.1 L 29.189 41.1 Q 31.053 40.339 32.119 38.702 L 32.119 38.702 L 32.119 38.702 Q 33.184 37.066 33.184 34.478 L 33.184 34.478 L 33.184 33.717 L 27.781 33.717 L 27.781 33.717 Q 26.943 33.717 26.373 33.108 L 26.373 33.108 L 26.373 33.108 Q 25.802 32.499 25.802 31.738 L 25.802 31.738 L 25.802 24.66 L 25.802 24.66 Q 25.802 23.823 26.373 23.252 L 26.373 23.252 L 26.373 23.252 Q 26.943 22.681 27.781 22.681 L 27.781 22.681 L 47.798 22.681 L 47.798 22.681 Q 48.635 22.681 49.244 23.252 L 49.244 23.252 L 49.244 23.252 Q 49.853 23.823 49.853 24.66 L 49.853 24.66 L 49.853 33.946 L 49.853 33.946 Q 49.853 40.643 46.656 45.286 L 46.656 45.286 L 46.656 45.286 Q 43.459 49.929 37.827 52.364 L 37.827 52.364 L 37.827 52.364 Q 32.195 54.8 24.736 54.8 Z " fill="rgb(76,138,0)"/><path d=" M 207.637 41.48 L 206.844 41.48 L 206.844 41.48 Q 206.348 41.48 206.051 41.207 L 206.051 41.207 L 206.051 41.207 Q 205.754 40.933 205.754 40.478 L 205.754 40.478 L 205.754 18.826 L 205.754 18.826 Q 205.754 18.37 206.051 18.074 L 206.051 18.074 L 206.051 18.074 Q 206.348 17.778 206.844 17.778 L 206.844 17.778 L 207.637 17.778 L 207.637 17.778 Q 208.132 17.778 208.454 18.074 L 208.454 18.074 L 208.454 18.074 Q 208.776 18.37 208.776 18.826 L 208.776 18.826 L 208.776 20.923 L 208.776 20.923 Q 209.668 19.327 211.353 18.552 L 211.353 18.552 L 211.353 18.552 Q 213.038 17.778 215.516 17.778 L 215.516 17.778 L 217.349 17.778 L 217.349 17.778 Q 217.845 17.778 218.142 18.051 L 218.142 18.051 L 218.142 18.051 Q 218.439 18.325 218.439 18.78 L 218.439 18.78 L 218.439 19.419 L 218.439 19.419 Q 218.439 19.874 218.142 20.148 L 218.142 20.148 L 218.142 20.148 Q 217.845 20.421 217.349 20.421 L 217.349 20.421 L 215.218 20.421 L 215.218 20.421 Q 212.245 20.421 210.511 22.017 L 210.511 22.017 L 210.511 22.017 Q 208.776 23.612 208.776 26.347 L 208.776 26.347 L 208.776 40.478 L 208.776 40.478 Q 208.776 40.933 208.454 41.207 L 208.454 41.207 L 208.454 41.207 Q 208.132 41.48 207.637 41.48 L 207.637 41.48 Z " fill="rgb(255,255,255)"/></g></svg>